<?xml version="1.0" encoding="UTF-8"?>
<svg width="145px" height="145px" viewBox="0 0 145 145" version="1.1" xmlns="http://www.w3.org/2000/svg" xmlns:xlink="http://www.w3.org/1999/xlink">
    <!-- Generator: Sketch 49.3 (51167) - http://www.bohemiancoding.com/sketch -->
    <title>Globe</title>
    <desc>Created with Sketch.</desc>
    <defs></defs>
    <g id="Globe" stroke="none" stroke-width="1" fill="none" fill-rule="evenodd">
        <g id="Group" transform="translate(4.000000, 4.000000)" stroke="#979797">
            <circle id="Oval" stroke-width="8" cx="68.5" cy="68.5" r="68.5"></circle>
            <polygon id="Path-2" stroke-width="3" fill="#979797" stroke-linejoin="round" points="56.6100796 131 52.071618 126.281782 52.071618 121.406291 54.3408488 118.57536 57.3925729 113.385321 58.9575597 108.50983 62.0875332 107.408912 63.9655172 101.589777 63.9655172 99.2306684 66 94.5124509 66 91.3669725 57.3925729 88.5360419 52.071618 87.1205767 50.0371353 83.1887287 44.7161804 81.7732634 41.4297082 78.9423329 35.795756 77.3695937 31.1007958 77.3695937 29.535809 78.1559633 24.9973475 78.9423329 23.5888594 75.1677588 23.5888594 72.1795544 20.1458886 72.1795544 21.397878 67.4613368 18.5809019 66.8322412 17.3289125 69.3486239 14.5119363 67.4613368 14.5119363 61.327654 17.3289125 59.5976409 21.397878 59.5976409 24.2148541 61.327654 24.9973475 64.0013106 26.2493369 62.7431193 26.2493369 58.0249017 31.1007958 54.8794233 33.4482759 50.1612058 35.1697613 50.1612058 41.4297082 45.2857143 44.7161804 45.2857143 42.6816976 41.5111402 49.0981432 38.9947575 49.0981432 36.0065531 46.9071618 33.3328965 45.9681698 29.0865007 42.6816976 30.6592398 42.6816976 27.8283093 40.2559682 25.4692005 36.8912467 29.7155963 35.795756 33.3328965 32.5092838 34.4338139 28.9098143 32.0747051 28.9098143 29.0865007 34.0742706 24.3682831 37.9867374 25.4692005 42.6816976 25.4692005 45.9681698 27.8283093 47.5331565 24.3682831 50.0371353 22.63827 49.0981432 18.5491481 46.9071618 15.0891219 46.9071618 13.5163827 41.4297082 12.1009174 38.6127321 12.1009174 37.9867374 11 32.5092838 11 18.5809019 21.6946265 12.6339523 34.4338139 8.87798408 41.5111402 7 50.1612058 7 58.0249017 8.87798408 64.0013106 12.0079576 70.1349934 15.2944297 72.1795544 19.2068966 75.1677588 22.0238727 77.3695937 24.9973475 81.7732634 29.535809 81.7732634 29.535809 85.8623853 28.9098143 90.423329 31.1007958 96.242464 35.795756 101.589777 39.5517241 104.735256 42.6816976 117.317169 45.9681698 123.7654 50.0371353 128.955439"></polygon>
            <polygon id="Path-3" stroke-width="3" fill="#979797" stroke-linejoin="round" points="58.9237288 29 60.5338983 23.8 66.1694915 19.3878788 71 17.4969697 71 13.4 69.8728814 9.46060606 68.2627119 4.73333333 64.9618644 3 62.1440678 3.94545455 58.9237288 3.94545455 52 8.83030303 52 11.0363636 55.3813559 11.9818182 55.3813559 16 52.9661017 20.4909091 53.9322034 26.3212121"></polygon>
            <polygon id="Path-4" stroke-width="3" fill="#979797" stroke-linejoin="round" points="100 111 104.578947 110.211332 110.578947 105.321593 112.631579 102.640123 114.210526 98.0658499 118.315789 95.0689127 119.263158 88.4441041 119.263158 84.3430322 124.631579 77.56049 126.526316 71.2511485 122.894737 71.2511485 122.894737 69.5160796 127.789474 65.2572741 129.368421 60.0520674 127.789474 57.5283308 129.368421 56.2664625 132.210526 57.5283308 135.052632 68.4119449 136 73.9326187 136 62.8912711 133.947368 48.5375191 128.578947 35.1301685 112.631579 16.6753446 100.789474 8 103.947368 14.151608 101.736842 18.2526799 100 16.6753446 91.6315789 14.151608 88.7894737 16.6753446 88.7894737 21.0918836 87.0526316 23.6156202 88.7894737 26.6125574 91.6315789 26.6125574 91.6315789 30.3981623 90.0526316 33.237366 87.0526316 36.2343032 84.6842105 36.8652374 87.6842105 39.388974 87.6842105 41.43951 82 41.43951 82 46.1715161 84.6842105 48.5375191 88.7894737 47.4333844 91.6315789 43.1745789 96.2105263 40.8085758 100.789474 44.9096478 101.736842 46.1715161 103.157895 44.9096478 106.157895 47.4333844 106.157895 44.2787136 109 46.1715161 111.526316 48.5375191 115.315789 47.4333844 115.315789 52.1653905 112.631579 52.1653905 109 52.1653905 106.157895 51.5344564 105.368421 53.5849923 100.789474 52.1653905 98.2631579 50.5880551 98.2631579 47.4333844 92.2631579 48.5375191 87.6842105 49.6416539 84.6842105 49.6416539 82 53.5849923 79.9473684 56.2664625 76 62.1026034 76 64.62634 76 68.4119449 78.2105263 73.9326187 81.0526316 76.6140888 84.6842105 78.6646248 88.7894737 77.56049 94.6315789 76.6140888 97 78.6646248 98.8947368 79.295559 98.2631579 83.5543645 100.789474 88.4441041 100.789474 91.5987749 98.8947368 95.0689127 98.2631579 97.2771822 98.8947368 101.851455 98.8947368 104.690658 100 109.107198"></polygon>
            <polygon id="Path-5" stroke-width="3" stroke-linejoin="round" points="84.6046512 35 87.5348837 34.4074074 89 34.4074074 89 32.6296296 87.5348837 32.6296296 85.744186 30.4074074 84.6046512 28.7777778 84.6046512 27 82 27 82 29.5185185 84.6046512 31 84.6046512 32.6296296 85.744186 33.3703704"></polygon>
        </g>
    </g>
</svg>